HIERARCHY
ROOT Hips
{
	OFFSET 0.00000 0.00000 0.00000
	CHANNELS 6 Xposition Yposition Zposition Zrotation Yrotation Xrotation 
	JOINT LHipJoint
	{
		OFFSET 0 0 0
		CHANNELS 3 Zrotation Yrotation Xrotation
		JOINT LeftHip
		{
			OFFSET 1.80322 -1.53100 0.99595
			CHANNELS 3 Zrotation Yrotation Xrotation
			JOINT LeftKnee
			{
				OFFSET 2.25177 -6.18669 0.00000
				CHANNELS 3 Zrotation Yrotation Xrotation
				JOINT LeftAnkle
				{
					OFFSET 2.26601 -6.22582 0.00000
					CHANNELS 3 Zrotation Yrotation Xrotation
					JOINT LeftToe
					{
						OFFSET 0.23701 -0.65119 2.15848
						CHANNELS 3 Zrotation Yrotation Xrotation
						End Site
						{
							OFFSET 0.00000 -0.00000 1.12949
						}
					}
				}
			}
		}
	}
	JOINT RHipJoint
	{
		OFFSET 0 0 0
		CHANNELS 3 Zrotation Yrotation Xrotation
		JOINT RightHip
		{
			OFFSET -1.93977 -1.53100 0.99595
			CHANNELS 3 Zrotation Yrotation Xrotation
			JOINT RightKnee
			{
				OFFSET -2.28036 -6.26523 0.00000
				CHANNELS 3 Zrotation Yrotation Xrotation
				JOINT RightAnkle
				{
					OFFSET -2.25490 -6.19528 0.00000
					CHANNELS 3 Zrotation Yrotation Xrotation
					JOINT RightToe
					{
						OFFSET -0.28375 -0.77960 2.23137
						CHANNELS 3 Zrotation Yrotation Xrotation
						End Site
						{
							OFFSET -0.00000 -0.00000 1.17899
						}
					}
				}
			}
		}
	}
	JOINT lowerback
	{
		OFFSET 0 0 0
		CHANNELS 3 Zrotation Yrotation Xrotation
		JOINT Chest
		{
			OFFSET -0.00088 2.12090 -0.02806
			CHANNELS 3 Zrotation Yrotation Xrotation
			JOINT Chest2
			{
				OFFSET -0.00286 2.09666 0.12974
				CHANNELS 3 Zrotation Yrotation Xrotation
				JOINT lowerneck
				{
					OFFSET 0 0 0
					CHANNELS 3 Zrotation Yrotation Xrotation
					JOINT Neck
					{
						OFFSET 0.07328 1.83526 0.07290
						CHANNELS 3 Zrotation Yrotation Xrotation
						JOINT Head
						{
							OFFSET -0.06683 1.74974 -0.49542
							CHANNELS 3 Zrotation Yrotation Xrotation
							End Site
							{
								OFFSET -0.03398 1.85163 -0.17573
							}
						}
					}
				}
				JOINT LeftCollar
				{
					OFFSET 0 0 0
					CHANNELS 3 Zrotation Yrotation Xrotation
					JOINT LeftShoulder
					{
						OFFSET 3.02113 1.18018 0.40602
CHANNELS 3 Zrotation Xrotation Yrotation
						JOINT LeftElbow
						{
OFFSET 0 -4.585380 -0.000000
CHANNELS 3 Zrotation Xrotation Yrotation
							JOINT LeftWrist
							{
OFFSET 0 -2.689350 -0.000000
CHANNELS 3 Zrotation Xrotation Yrotation
								JOINT lhand
								{
									OFFSET 0 0 0
CHANNELS 3 Zrotation Xrotation Yrotation
									JOINT LFingers
									{
OFFSET 0 -0.585060 -0.000000
CHANNELS 3 Zrotation Xrotation Yrotation
										End Site
										{
OFFSET 0 -0.471690 -0.000000
										}
									}
								}
								JOINT LThumb
								{
OFFSET 0 0.000000 0.000000
CHANNELS 3 Zrotation Xrotation Yrotation
									End Site
									{
OFFSET 0 -0.478890 0.478890
									}
								}
							}
						}
					}
				}
				JOINT RightCollar
				{
					OFFSET 0 0 0
					CHANNELS 3 Zrotation Yrotation Xrotation
					JOINT RightShoulder
					{
						OFFSET -2.95074 1.18843 0.31430
CHANNELS 3 Zrotation Xrotation Yrotation
						JOINT RightElbow
						{
OFFSET 0 -4.474500 -0.000000
CHANNELS 3 Zrotation Xrotation Yrotation
							JOINT RightWrist
							{
OFFSET 0 -2.938960 -0.000000
CHANNELS 3 Zrotation Xrotation Yrotation
								JOINT rhand
								{
									OFFSET 0 0 0
CHANNELS 3 Zrotation Xrotation Yrotation
									JOINT RFingers
									{
OFFSET 0 -0.405090 -0.000000
CHANNELS 3 Zrotation Xrotation Yrotation
										End Site
										{
OFFSET 0 -0.326600 -0.000000
										}
									}
								}
								JOINT RThumb
								{
OFFSET 0 0.000000 0.000000
CHANNELS 3 Zrotation Xrotation Yrotation
									End Site
									{
OFFSET 0 -0.331580 0.331580
									}
								}
							}
						}
					}
				}
			}
		}
	}
}
MOTION
Frames: 8
Frame Time: 0.008333333333333333
0.619454 15.282281 6.728573 1.289521 -4.536160 64.365374 0.000000 0.000000 0.000000 8.365283 -23.985760 -89.947279 2.589645 9.999089 28.973852 -0.219741 8.875313 -6.673100 0.119873 2.232037 6.147461 0.000000 0.000000 0.000000 -17.010770 22.135620 -93.224968 -3.035072 -10.751463 31.446425 0.303920 -9.910499 -5.717448 -0.002546 -0.326862 0.898055 -0.543223 2.095273 34.595041 -0.726522 2.265950 3.310198 -1.445642 0.979786 -13.971216 16.916670 3.442433 -11.553849 -14.074290 3.543376 9.866192 -7.029388 1.463987 5.418864 0.000000 0.000000 0.000000 8.739323 -54.239544 -33.414467 12.400057 -20.401882 2.239794 7.342070 6.676081 -16.363107 0.000000 0.000000 0.000000 -7.125000 0.000000 0.000000 -19.025572 45.567382 0.275954 0.000000 0.000000 0.000000 -20.673873 -54.382655 5.350838 -11.897109 -19.650222 -2.067585 -7.749553 0.523665 9.751486 0.000000 0.000000 0.000000 7.125000 0.000000 0.000000 16.630110 39.277461 2.423356
0.591548 15.347552 6.727004 1.794822 -4.665974 58.257324 0.000000 0.000000 0.000000 3.400917 -24.376585 -83.305366 2.833999 10.421406 30.352497 -0.079703 6.668159 -7.128097 0.104297 2.082412 5.733523 0.000000 0.000000 0.000000 -13.322090 23.091662 -87.323783 -3.456621 -11.399829 33.640611 0.162212 -8.036381 -6.910753 -0.001119 -0.217157 0.596657 0.021010 1.174545 31.367072 -1.788519 1.211936 3.143005 -2.404259 0.491800 -12.815735 16.596960 4.095672 -12.773297 -13.037306 4.171575 9.990854 -6.560241 1.785971 5.739125 0.000000 0.000000 0.000000 11.095013 -35.717006 -29.150201 12.880841 -21.112297 2.410186 4.486736 3.676039 -17.159186 0.000000 0.000000 0.000000 -7.125000 0.000000 0.000000 -21.868790 45.964569 0.547276 0.000000 0.000000 0.000000 -9.359986 -38.770171 4.175432 -11.809694 -19.518628 -2.038277 -4.994766 -5.055447 13.549624 0.000000 0.000000 0.000000 7.125000 0.000000 0.000000 20.087990 42.648987 1.219046
0.586210 15.477527 6.809402 2.259160 -5.118689 52.080632 0.000000 0.000000 0.000000 -0.852301 -24.712714 -74.516200 2.630829 10.071747 29.209459 -0.043158 6.421626 -7.937019 0.115320 2.189020 6.028449 0.000000 0.000000 0.000000 -9.369596 23.659021 -79.452558 -3.435976 -11.369400 33.536000 0.059708 -6.635263 -7.768231 -0.000300 -0.108485 0.298076 0.434853 0.525085 28.864513 -2.607336 0.418306 2.435767 -3.433735 0.054962 -13.291443 16.256946 4.554464 -13.179557 -12.203303 4.755440 11.199547 -6.177310 2.112619 6.247952 0.000000 0.000000 0.000000 12.811206 -16.874640 -24.512667 13.571153 -22.118233 2.664475 3.653806 1.834116 -18.481499 0.000000 0.000000 0.000000 -7.125000 0.000000 0.000000 -23.170253 47.078884 1.253827 0.000000 0.000000 0.000000 -4.644940 -21.554393 -0.188128 -11.918910 -19.682900 -2.074860 -3.610118 -4.379820 15.270386 0.000000 0.000000 0.000000 7.125000 0.000000 0.000000 21.895108 44.108860 0.507100
0.575540 15.594950 6.928416 3.000358 -4.894696 47.309075 0.000000 0.000000 0.000000 -4.522055 -24.899554 -66.777313 2.268409 9.404122 27.067987 -0.024062 6.111010 -8.027473 0.112689 2.164182 5.959579 0.000000 0.000000 0.000000 -6.453382 23.381728 -72.867509 -3.425599 -11.354043 33.483523 -0.009274 -6.309220 -9.240464 -0.000095 0.069721 -0.191565 -1.590234 -1.405537 24.797353 -1.040281 -2.400070 1.132391 0.570782 -1.031679 -12.618224 12.110432 6.728594 -13.589695 -11.424963 8.464278 12.587695 -4.805441 3.752395 7.101643 0.000000 0.000000 0.000000 9.585415 0.239053 -10.674356 14.327769 -23.201404 2.956011 2.130196 5.905459 -19.007824 0.000000 0.000000 0.000000 -7.125000 0.000000 0.000000 -24.764505 47.356910 1.530442 0.000000 0.000000 0.000000 -6.651914 -8.673983 -1.053819 -11.751602 -19.431087 -2.018932 -4.802723 -5.928021 17.936425 0.000000 0.000000 0.000000 7.125000 0.000000 0.000000 21.910463 46.725760 -0.979002
0.567239 15.705664 7.110059 2.894905 -4.745791 42.991704 0.000000 0.000000 0.000000 -6.966135 -24.512408 -59.355780 1.963890 8.790352 25.141843 -0.012369 6.441836 -8.864053 0.111122 2.149239 5.918329 0.000000 0.000000 0.000000 -2.815162 23.153968 -65.933741 -3.211879 -11.030257 32.382143 -0.134324 -5.969014 -11.529495 -0.040283 1.293867 -3.557872 -1.142490 -1.348449 20.203726 -1.036775 -2.176723 -0.668057 0.153725 -0.975280 -12.132622 11.740834 6.754133 -13.925552 -10.341753 8.555674 15.396316 -4.384141 3.835077 8.017922 0.000000 0.000000 0.000000 9.673313 12.491288 -0.132956 14.984433 -24.124393 3.219569 1.909525 4.945227 -20.836749 0.000000 0.000000 0.000000 -7.125000 0.000000 0.000000 -25.856791 48.977204 2.701595 0.000000 0.000000 0.000000 -8.435673 3.348025 -13.833957 -12.289191 -20.236852 -2.201326 -8.212189 -7.097681 21.401734 0.000000 0.000000 0.000000 7.125000 0.000000 0.000000 20.351339 50.444162 -2.832254
0.575310 15.838097 7.398884 2.568206 -4.671350 38.818764 0.000000 0.000000 0.000000 -9.231784 -24.004872 -51.276620 1.597736 7.972213 22.629793 -0.062616 7.943305 -9.905827 0.061854 1.603350 4.410672 0.000000 0.000000 0.000000 0.927041 22.603905 -58.134896 -2.828959 -10.412758 30.324144 -0.279388 -5.412000 -13.441997 -0.069253 1.697687 -4.670960 -0.413557 -1.163765 15.439180 -1.168104 -1.768035 -2.580441 -0.600603 -0.854457 -11.566638 12.023426 6.488022 -13.777722 -9.685639 8.239559 18.639578 -4.288838 3.757965 9.025855 0.000000 0.000000 0.000000 12.973266 21.212894 13.148310 15.275419 -24.528358 3.339468 1.424407 5.082652 -21.649671 0.000000 0.000000 0.000000 -7.125000 0.000000 0.000000 -26.721367 49.633391 3.261153 0.000000 0.000000 0.000000 -12.592250 11.734615 -29.335344 -12.652241 -20.775578 -2.328481 -12.018327 -6.588584 24.657210 0.000000 0.000000 0.000000 7.125000 0.000000 0.000000 18.352227 54.171392 -4.244792
0.565721 15.963459 7.779709 2.058754 -4.218699 33.881924 0.000000 0.000000 0.000000 -11.688880 -23.053292 -41.506423 1.171770 6.870737 19.333186 -0.109848 9.170002 -10.847105 0.038136 1.260641 3.466256 0.000000 0.000000 0.000000 5.045955 21.901413 -48.593755 -2.364858 -9.587749 27.651802 -0.360300 -5.252582 -14.491317 -0.032739 1.167910 -3.210825 0.108310 -1.009047 11.442916 -1.045464 -1.451700 -4.175423 -0.890744 -0.747451 -10.995239 11.874139 6.097086 -12.927333 -8.252436 7.744676 22.592259 -3.902367 3.690233 10.123921 0.000000 0.000000 0.000000 19.089031 27.074321 24.443175 15.775964 -25.215963 3.549994 3.236562 3.857240 -21.814704 0.000000 0.000000 0.000000 -7.125000 0.000000 0.000000 -25.162519 50.056120 3.321826 0.000000 0.000000 0.000000 -19.661629 17.461026 -42.137696 -13.663659 -22.251823 -2.699548 -17.636982 -7.528061 28.305167 0.000000 0.000000 0.000000 7.125000 0.000000 0.000000 14.713321 58.843461 -5.046834
0.551321 16.043685 8.211291 1.828209 -3.706255 29.158881 0.000000 0.000000 0.000000 -14.435013 -21.617793 -31.848046 0.784322 5.653699 15.782884 -0.146475 10.011268 -11.510646 0.020132 0.916574 2.519230 0.000000 0.000000 0.000000 8.415969 20.788900 -39.434807 -1.995145 -8.855919 25.345584 -0.449284 -5.694702 -16.027541 -0.031569 1.147724 -3.155214 0.208922 -0.988957 7.761704 -0.900230 -1.404357 -5.860214 -0.846385 -0.737268 -10.669592 11.561199 5.561163 -11.712605 -7.053220 7.152098 27.476718 -3.607838 3.585078 11.574267 0.000000 0.000000 0.000000 28.533720 31.317428 31.952444 16.477630 -26.163984 3.854182 3.629419 0.434202 -22.313855 0.000000 0.000000 0.000000 -7.125000 0.000000 0.000000 -25.069149 50.567856 3.638245 0.000000 0.000000 0.000000 -29.819501 20.373862 -50.539891 -14.607960 -23.597063 -3.067289 -22.467790 -9.824017 31.042620 0.000000 0.000000 0.000000 7.125000 0.000000 0.000000 11.142542 62.719132 -4.827499
